<svg width="32" height="32" viewBox="0 0 32 32" fill="none" xmlns="http://www.w3.org/2000/svg">
<path d="M18 26C18 28.21 15.76 30 13 30C10.24 30 8 28.21 8 26C8 23.79 10.24 22 13 22C15.76 22 18 23.79 18 26Z" fill="#6B41E9"/>
<path fill-rule="evenodd" clip-rule="evenodd" d="M18 6V26H16V6H18Z" fill="#6B41E9"/>
<path d="M16 5.63995C16.0003 5.17777 16.1606 4.72995 16.4538 4.37263C16.7469 4.0153 17.1548 3.77054 17.608 3.67995L23.608 2.47995C23.898 2.42198 24.1973 2.42906 24.4843 2.50069C24.7713 2.57232 25.0388 2.7067 25.2676 2.89417C25.4964 3.08164 25.6807 3.31752 25.8074 3.58481C25.934 3.85211 25.9998 4.14417 26 4.43995V7.99995L16 9.99995V5.63995Z" fill="#6B41E9"/>
</svg>
